<svg xmlns="http://www.w3.org/2000/svg" viewBox="0 0 512 512">
  <defs>
    <linearGradient id="bg" x1="0%" y1="0%" x2="100%" y2="100%">
      <stop offset="0%" style="stop-color:#0a0a1a"/>
      <stop offset="100%" style="stop-color:#1a1a3a"/>
    </linearGradient>
  </defs>
  <rect width="512" height="512" rx="100" fill="url(#bg)"/>
  <!-- Grid -->
  <rect x="50" y="50" width="95" height="95" rx="16" fill="rgba(255,255,255,0.06)"/>
  <rect x="155" y="50" width="95" height="95" rx="16" fill="rgba(255,255,255,0.06)"/>
  <rect x="260" y="50" width="95" height="95" rx="16" fill="rgba(255,255,255,0.06)"/>
  <rect x="365" y="50" width="95" height="95" rx="16" fill="rgba(255,255,255,0.06)"/>
  <rect x="50" y="155" width="95" height="95" rx="16" fill="#eee4da"/>
  <rect x="155" y="155" width="95" height="95" rx="16" fill="#ede0c8"/>
  <rect x="260" y="155" width="95" height="95" rx="16" fill="#f2b179"/>
  <rect x="365" y="155" width="95" height="95" rx="16" fill="rgba(255,255,255,0.06)"/>
  <rect x="50" y="260" width="95" height="95" rx="16" fill="rgba(255,255,255,0.06)"/>
  <rect x="155" y="260" width="95" height="95" rx="16" fill="#f59563"/>
  <rect x="260" y="260" width="95" height="95" rx="16" fill="#edcf72"/>
  <rect x="365" y="260" width="95" height="95" rx="16" fill="#f65e3b"/>
  <rect x="50" y="365" width="95" height="95" rx="16" fill="rgba(255,255,255,0.06)"/>
  <rect x="155" y="365" width="95" height="95" rx="16" fill="rgba(255,255,255,0.06)"/>
  <rect x="260" y="365" width="95" height="95" rx="16" fill="#eee4da"/>
  <rect x="365" y="365" width="95" height="95" rx="16" fill="rgba(255,255,255,0.06)"/>
  <!-- Numbers -->
  <text x="97" y="215" font-family="Arial,sans-serif" font-size="40" font-weight="800" fill="#776e65" text-anchor="middle">2</text>
  <text x="202" y="215" font-family="Arial,sans-serif" font-size="40" font-weight="800" fill="#776e65" text-anchor="middle">4</text>
  <text x="307" y="215" font-family="Arial,sans-serif" font-size="40" font-weight="800" fill="#f9f6f2" text-anchor="middle">8</text>
  <text x="202" y="320" font-family="Arial,sans-serif" font-size="34" font-weight="800" fill="#f9f6f2" text-anchor="middle">16</text>
  <text x="307" y="318" font-family="Arial,sans-serif" font-size="28" font-weight="800" fill="#f9f6f2" text-anchor="middle">128</text>
  <text x="412" y="320" font-family="Arial,sans-serif" font-size="34" font-weight="800" fill="#f9f6f2" text-anchor="middle">64</text>
  <text x="307" y="425" font-family="Arial,sans-serif" font-size="40" font-weight="800" fill="#776e65" text-anchor="middle">2</text>
</svg>
