<svg xmlns="http://www.w3.org/2000/svg" viewBox="0 0 192 192">
  <defs>
    <linearGradient id="bg" x1="0%" y1="0%" x2="100%" y2="100%">
      <stop offset="0%" style="stop-color:#0a0a1a"/>
      <stop offset="100%" style="stop-color:#1a1a3a"/>
    </linearGradient>
    <linearGradient id="tg" x1="0%" y1="0%" x2="100%" y2="100%">
      <stop offset="0%" style="stop-color:#f4a261"/>
      <stop offset="100%" style="stop-color:#e76f51"/>
    </linearGradient>
  </defs>
  <rect width="192" height="192" rx="40" fill="url(#bg)"/>
  <!-- Grid cells -->
  <rect x="20" y="20" width="34" height="34" rx="6" fill="rgba(255,255,255,0.06)"/>
  <rect x="59" y="20" width="34" height="34" rx="6" fill="rgba(255,255,255,0.06)"/>
  <rect x="98" y="20" width="34" height="34" rx="6" fill="rgba(255,255,255,0.06)"/>
  <rect x="137" y="20" width="34" height="34" rx="6" fill="rgba(255,255,255,0.06)"/>
  <rect x="20" y="59" width="34" height="34" rx="6" fill="rgba(255,255,255,0.06)"/>
  <rect x="59" y="59" width="34" height="34" rx="6" fill="#eee4da"/>
  <rect x="98" y="59" width="34" height="34" rx="6" fill="#f2b179"/>
  <rect x="137" y="59" width="34" height="34" rx="6" fill="rgba(255,255,255,0.06)"/>
  <rect x="20" y="98" width="34" height="34" rx="6" fill="rgba(255,255,255,0.06)"/>
  <rect x="59" y="98" width="34" height="34" rx="6" fill="#f59563"/>
  <rect x="98" y="98" width="34" height="34" rx="6" fill="#edcf72"/>
  <rect x="137" y="98" width="34" height="34" rx="6" fill="rgba(255,255,255,0.06)"/>
  <rect x="20" y="137" width="34" height="34" rx="6" fill="rgba(255,255,255,0.06)"/>
  <rect x="59" y="137" width="34" height="34" rx="6" fill="rgba(255,255,255,0.06)"/>
  <rect x="98" y="137" width="34" height="34" rx="6" fill="rgba(255,255,255,0.06)"/>
  <rect x="137" y="137" width="34" height="34" rx="6" fill="rgba(255,255,255,0.06)"/>
  <!-- Tile numbers -->
  <text x="76" y="82" font-family="Arial,sans-serif" font-size="14" font-weight="800" fill="#776e65" text-anchor="middle">2</text>
  <text x="115" y="82" font-family="Arial,sans-serif" font-size="14" font-weight="800" fill="#f9f6f2" text-anchor="middle">8</text>
  <text x="76" y="121" font-family="Arial,sans-serif" font-size="12" font-weight="800" fill="#f9f6f2" text-anchor="middle">16</text>
  <text x="115" y="119" font-family="Arial,sans-serif" font-size="10" font-weight="800" fill="#f9f6f2" text-anchor="middle">128</text>
</svg>
